<svg fill="currentcolor" xmlns="http://www.w3.org/2000/svg" width="16px" height="16px" viewBox="0 0 28 28">
  <g clip-path="url(#clip0_1298_12)">
    <mask id="path-1-inside-1_1298_12">
      <path
        d="M1.21289 9.13964V17.5684C0.421875 17.5068 0 17.041 0 16.1885V10.5195C0 9.66699 0.421875 9.20117 1.21289 9.13964Z"/>
      <path
        d="M4.31836 7.66308V19.0977C3.4834 18.9746 3 18.5527 3 17.6123V9.15722C3 8.208 3.4834 7.78613 4.31836 7.66308Z"/>
      <path
        d="M26.7871 17.6211V9.19238C27.5781 9.25391 28 9.71973 28 10.5723V16.2412C28 17.0938 27.5781 17.5596 26.7871 17.6211Z"/>
      <path
        d="M23.6816 19.0977V7.66309C24.5166 7.78613 25 8.20801 25 9.14844V17.6035C25 18.5527 24.5166 18.9746 23.6816 19.0977Z"/>
      <path
        d="M19.1309 21.8115H8.8916C6.99316 21.8115 6 20.8271 6 18.9463V8.86523C6 6.98438 6.99316 6 8.8916 6H18.9111C20.8096 6 21.8027 6.98438 21.8027 8.86523V18.9463C21.8027 20.8271 20.8184 21.8115 19.1309 21.8115Z"/>
    </mask>
    <path
      d="M1.21289 17.5684L1.0578 19.5623L3.21289 19.73V17.5684H1.21289ZM1.21289 9.13964H3.21289V6.97805L1.0578 7.14567L1.21289 9.13964ZM0 16.1885H-2H0ZM4.31836 19.0977L4.02677 21.0763L6.31836 21.414V19.0977H4.31836ZM4.31836 7.66308H6.31836V5.34674L4.02677 5.68445L4.31836 7.66308ZM3 17.6123H1H3ZM26.7871 9.19238L26.9422 7.19841L24.7871 7.03079V9.19238H26.7871ZM26.7871 17.6211H24.7871V19.7827L26.9422 19.6151L26.7871 17.6211ZM23.6816 7.66309L23.9732 5.68446L21.6816 5.34675V7.66309H23.6816ZM23.6816 19.0977H21.6816V21.414L23.9732 21.0763L23.6816 19.0977ZM3.21289 17.5684V9.13964H-0.787109V17.5684H3.21289ZM1.0578 7.14567C0.301257 7.20451 -0.547778 7.48477 -1.18736 8.20688C-1.81496 8.91547 -2 9.77867 -2 10.5195H2C2 10.4078 2.0259 10.6119 1.80699 10.859C1.5761 11.1197 1.33351 11.1363 1.36798 11.1336L1.0578 7.14567ZM-2 10.5195V16.1885H2V10.5195H-2ZM-2 16.1885C-2 16.9293 -1.81496 17.7925 -1.18736 18.5011C-0.547778 19.2232 0.301256 19.5035 1.0578 19.5623L1.36798 15.5744C1.33351 15.5717 1.5761 15.5883 1.80699 15.849C2.0259 16.0961 2 16.3002 2 16.1885H-2ZM6.31836 19.0977V7.66308H2.31836V19.0977H6.31836ZM4.02677 5.68445C3.36601 5.78183 2.53901 6.03909 1.88908 6.73023C1.21393 7.4482 1 8.34322 1 9.15722H5C5 9.08583 5.0095 9.10245 4.98579 9.17352C4.959 9.25384 4.90239 9.3648 4.80306 9.47044C4.60357 9.68258 4.43575 9.66738 4.60995 9.64171L4.02677 5.68445ZM1 9.15722V17.6123H5V9.15722H1ZM1 17.6123C1 18.4267 1.2165 19.3197 1.89223 20.0349C2.54133 20.722 3.36609 20.9789 4.02677 21.0763L4.60995 17.119C4.43567 17.0933 4.60125 17.0778 4.79991 17.2881C4.89919 17.3932 4.95674 17.5044 4.98444 17.5869C5.00906 17.6601 5 17.6797 5 17.6123H1ZM24.7871 9.19238V17.6211H28.7871V9.19238H24.7871ZM26.9422 19.6151C27.6987 19.5562 28.5478 19.276 29.1874 18.5539C29.815 17.8453 30 16.9821 30 16.2412H26C26 16.3529 25.9741 16.1489 26.193 15.9017C26.4239 15.641 26.6665 15.6244 26.632 15.6271L26.9422 19.6151ZM30 16.2412V10.5723H26V16.2412H30ZM30 10.5723C30 9.83141 29.815 8.96821 29.1874 8.25962C28.5478 7.53751 27.6987 7.25725 26.9422 7.19841L26.632 11.1864C26.6665 11.189 26.4239 11.1724 26.193 10.9118C25.9741 10.6646 26 10.4606 26 10.5723H30ZM21.6816 7.66309V19.0977H25.6816V7.66309H21.6816ZM23.9732 21.0763C24.634 20.9789 25.461 20.7217 26.1109 20.0305C26.7861 19.3125 27 18.4175 27 17.6035H23C23 17.6749 22.9905 17.6583 23.0142 17.5872C23.041 17.5069 23.0976 17.3959 23.1969 17.2903C23.3964 17.0782 23.5642 17.0934 23.3901 17.119L23.9732 21.0763ZM27 17.6035V9.14844H23V17.6035H27ZM27 9.14844C27 8.33406 26.7835 7.44109 26.1078 6.7258C25.4587 6.0387 24.6339 5.78182 23.9732 5.68446L23.3901 9.64172C23.5643 9.6674 23.3988 9.68298 23.2001 9.47269C23.1008 9.36759 23.0433 9.2563 23.0156 9.17386C22.9909 9.10059 23 9.081 23 9.14844H27ZM8.8916 23.8115H19.1309V19.8115H8.8916V23.8115ZM4 18.9463C4 20.2228 4.34111 21.5288 5.32612 22.5049C6.30803 23.4779 7.61575 23.8115 8.8916 23.8115V19.8115C8.58493 19.8115 8.39055 19.7712 8.27914 19.7336C8.17592 19.6987 8.14546 19.6674 8.14166 19.6636C8.1382 19.6602 8.10909 19.6328 8.07601 19.5367C8.03999 19.432 8 19.2453 8 18.9463H4ZM4 8.86523V18.9463H8V8.86523H4ZM8.8916 4C7.61575 4 6.30803 4.33364 5.32612 5.30667C4.34111 6.28276 4 7.5887 4 8.86523H8C8 8.56627 8.03999 8.37949 8.07601 8.27482C8.10909 8.17868 8.1382 8.15135 8.14166 8.14792C8.14546 8.14416 8.17592 8.11282 8.27914 8.07795C8.39055 8.0403 8.58493 8 8.8916 8V4ZM18.9111 4H8.8916V8H18.9111V4ZM23.8027 8.86523C23.8027 7.5887 23.4616 6.28276 22.4766 5.30667C21.4947 4.33364 20.187 4 18.9111 4V8C19.2178 8 19.4122 8.0403 19.5236 8.07795C19.6268 8.11282 19.6573 8.14416 19.6611 8.14792C19.6645 8.15135 19.6936 8.17868 19.7267 8.27482C19.7627 8.37949 19.8027 8.56627 19.8027 8.86523H23.8027ZM23.8027 18.9463V8.86523H19.8027V18.9463H23.8027ZM19.1309 23.8115C20.3632 23.8115 21.6177 23.4429 22.5498 22.4616C23.4674 21.4954 23.8027 20.2183 23.8027 18.9463H19.8027C19.8027 19.246 19.7631 19.441 19.7248 19.5563C19.6884 19.6656 19.6544 19.7017 19.6494 19.7069C19.646 19.7106 19.6296 19.7292 19.5676 19.7521C19.4983 19.7777 19.3613 19.8115 19.1309 19.8115V23.8115Z"
      mask="url(#path-1-inside-1_1298_12)"/>
  </g>
  <defs>
    <clipPath id="clip0_1298_12">
      <rect width="28" height="28" fill="white"/>
    </clipPath>
  </defs>
</svg>
